#Comment line ignore any data following # character 
#Hierarchical Translation and Rotation (.htr) file 
[Header]	
#Header keywords are followed by a single value 
FileType HTR		#Single word string
DataType HTRS		#Translation followed by rotation and scale data
FileVersion 1		#integer
NumSegments 25		#integer
NumFrames 4		#integer
DataFrameRate 30		#integer, data frame rate in this file
EulerRotationOrder ZYX
CalibrationUnits mm
RotationUnits Degrees
GlobalAxisofGravity Y
BoneLengthAxis Y
ScaleFactor 1.00
[SegmentNames&Hierarchy]
#CHILD	PARENT
BN_Tick_Root GLOBAL
BN_Torso BN_Tick_Root
BN_L_Leg_Front01 BN_Torso
BN_L_Leg_Rear01 BN_Torso
BN_MetalTop BN_Torso
BN_Neck BN_Torso
BN_R_Leg_Front01 BN_Torso
BN_R_Leg_Rear01 BN_Torso
BN_Sack BN_Torso
BN_L_Leg_Front02 BN_L_Leg_Front01
BN_L_Leg_Front03 BN_L_Leg_Front02
BN_L_Leg_Rear02 BN_L_Leg_Rear01
BN_L_Leg_Rear03 BN_L_Leg_Rear02
BN_Head BN_Neck
BN_Needle BN_Head
BN_R_Leg_Front02 BN_R_Leg_Front01
BN_R_Leg_Front03 BN_R_Leg_Front02
BN_R_Leg_Rear02 BN_R_Leg_Rear01
BN_R_Leg_Rear03 BN_R_Leg_Rear02
BN_SackDef01 BN_Sack
BN_SackDef02 BN_Sack
BN_SackDef03 BN_Sack
BN_SackDef04 BN_Sack
BN_SackDef05 BN_Sack
BN_SackDef06 BN_Sack
[BasePosition]
#SegmentName Tx, Ty, Tz, Rx, Ry, Rz, BoneLength
BN_Tick_Root 0.000000 0.000000 0.000000 -90.000000 0.000000 0.000000 10.000000 
BN_Torso 0.000000 0.000000 0.000000 0.000000 0.000000 0.000000 10.000000 
BN_L_Leg_Front01 0.000000 0.000000 0.000000 0.000000 0.000000 0.000000 10.000000 
BN_L_Leg_Rear01 0.000000 0.000000 0.000000 0.000000 0.000000 0.000000 10.000000 
BN_MetalTop 0.000000 0.000000 0.000000 0.000000 0.000000 0.000000 10.000000 
BN_Neck 0.000000 0.000000 0.000000 0.000000 0.000000 0.000000 10.000000 
BN_R_Leg_Front01 0.000000 0.000000 0.000000 0.000000 0.000000 0.000000 10.000000 
BN_R_Leg_Rear01 0.000000 0.000000 0.000000 0.000000 0.000000 0.000000 10.000000 
BN_Sack 0.000000 0.000000 0.000000 0.000000 0.000000 0.000000 10.000000 
BN_L_Leg_Front02 0.000000 0.000000 0.000000 0.000000 0.000000 0.000000 10.000000 
BN_L_Leg_Front03 0.000000 0.000000 0.000000 0.000000 0.000000 0.000000 10.000000 
BN_L_Leg_Rear02 0.000000 0.000000 0.000000 0.000000 0.000000 0.000000 10.000000 
BN_L_Leg_Rear03 0.000000 0.000000 0.000000 0.000000 0.000000 0.000000 10.000000 
BN_Head 0.000000 0.000000 0.000000 0.000000 0.000000 0.000000 10.000000 
BN_Needle 0.000000 0.000000 0.000000 0.000000 0.000000 0.000000 10.000000 
BN_R_Leg_Front02 0.000000 0.000000 0.000000 0.000000 0.000000 0.000000 10.000000 
BN_R_Leg_Front03 0.000000 0.000000 0.000000 0.000000 0.000000 0.000000 10.000000 
BN_R_Leg_Rear02 0.000000 0.000000 0.000000 0.000000 0.000000 0.000000 10.000000 
BN_R_Leg_Rear03 0.000000 0.000000 0.000000 0.000000 0.000000 0.000000 10.000000 
BN_SackDef01 0.000000 0.000000 0.000000 0.000000 0.000000 0.000000 10.000000 
BN_SackDef02 0.000000 0.000000 0.000000 0.000000 0.000000 0.000000 10.000000 
BN_SackDef03 0.000000 0.000000 0.000000 0.000000 0.000000 0.000000 10.000000 
BN_SackDef04 0.000000 0.000000 0.000000 0.000000 0.000000 0.000000 10.000000 
BN_SackDef05 0.000000 0.000000 0.000000 0.000000 0.000000 0.000000 10.000000 
BN_SackDef06 0.000000 0.000000 0.000000 0.000000 0.000000 0.000000 10.000000 
#Beginning of Data. Separated by tabs
#Fr	Tx	Ty	Tz	Rx	Ry	Rz	SF
[BN_Tick_Root]
20 0.000000 0.000000 0.000000 0.000000 0.000000 -0.000020 0.000000
21 0.000000 0.000000 0.000000 0.000000 0.000000 -0.000020 0.000000
22 0.000000 0.000000 0.000000 0.000000 0.000000 -0.000020 0.000000
23 0.000000 0.000000 0.000000 0.000000 0.000000 -0.000020 0.000000
[BN_Torso]
20 3.400748 109.076004 174.046524 6.707412 -2.265114 2.906760 205.429626
21 3.400748 109.076004 174.046524 6.681113 -2.987764 3.068742 205.429626
22 3.400748 109.076012 174.046524 6.641947 -4.327970 3.365043 205.429626
23 3.400748 109.076012 174.046524 6.620464 -5.051167 3.528268 205.429626
[BN_L_Leg_Front01]
20 -68.477791 10.734189 -26.804373 -36.257347 53.246098 174.686066 74.316254
21 -68.477791 10.734189 -26.804373 -36.333870 52.341415 174.345139 74.316254
22 -68.477791 10.734189 -26.804373 -36.419216 50.662128 173.766693 74.316254
23 -68.477791 10.734189 -26.804373 -36.459057 49.759220 173.460312 74.316254
[BN_L_Leg_Rear01]
20 -72.133743 -73.994843 -18.268616 67.924431 31.310537 -123.442558 104.939293
21 -72.133743 -73.994843 -18.268616 67.270569 30.798904 -124.137352 104.939293
22 -72.133743 -73.994843 -18.268616 66.076729 29.821203 -125.403610 104.939293
23 -72.133743 -73.994843 -18.268616 65.458786 29.283609 -126.065323 104.939293
[BN_MetalTop]
20 0.000008 13.737477 26.403606 94.511223 -32.409523 -98.378212 29.763546
21 0.000008 13.737477 26.403606 94.511940 -32.413109 -98.378685 29.763546
22 0.000008 13.737477 26.403606 94.512665 -32.416706 -98.379173 29.763546
23 0.000008 13.737477 26.403606 94.513374 -32.420292 -98.379631 29.763546
[BN_Neck]
20 0.000014 95.233284 10.002091 -89.999672 -65.297531 89.999657 95.757088
21 0.000014 95.233284 10.002091 -89.999672 -65.297531 89.999657 95.757088
22 0.000014 95.233284 10.002091 -89.999672 -65.297531 89.999657 95.757088
23 0.000014 95.233284 10.002091 -89.999672 -65.297531 89.999657 95.757088
[BN_R_Leg_Front01]
20 68.477768 10.734107 -26.804314 33.069046 60.702206 -4.185456 74.316193
21 68.477768 10.734107 -26.804314 32.771179 61.587776 -4.737894 74.316193
22 68.477768 10.734107 -26.804314 32.135860 63.234009 -5.847761 74.316193
23 68.477768 10.734107 -26.804314 31.753252 64.110062 -6.482564 74.316193
[BN_R_Leg_Rear01]
20 72.133751 -73.994873 -18.268644 -71.274490 43.575882 -64.867096 104.939331
21 72.133751 -73.994873 -18.268644 -72.116508 44.041901 -65.853371 104.939331
22 72.133751 -73.994873 -18.268644 -73.737785 44.859661 -67.732353 104.939331
23 72.133751 -73.994873 -18.268644 -74.640800 45.276875 -68.773140 104.939331
[BN_Sack]
20 -0.000000 -78.024918 33.657791 91.379875 -11.014524 -97.199577 84.974907
21 -0.000000 -78.024918 33.657791 91.379875 -11.014523 -97.199570 84.974907
22 -0.000000 -78.024918 33.657791 91.379875 -11.014524 -97.199577 84.974907
23 -0.000000 -78.024918 33.657791 91.379875 -11.014523 -97.199577 84.974907
[BN_L_Leg_Front02]
20 142.805023 -0.000015 -0.000104 -0.233212 0.972659 -157.468735 142.805023
21 142.805023 -0.000015 -0.000104 -0.231455 0.966337 -157.720810 142.805023
22 142.805023 -0.000015 -0.000104 -0.242052 0.981885 -158.159286 142.805023
23 142.805023 -0.000015 -0.000104 -0.239093 0.980488 -158.380859 142.805023
[BN_L_Leg_Front03]
20 124.143021 -0.000045 0.000007 0.355978 -0.213330 151.866577 124.143021
21 124.143021 -0.000045 0.000007 0.355311 -0.212179 152.010971 124.143021
22 124.143021 -0.000045 0.000007 0.354646 -0.211027 152.155380 124.143021
23 124.143021 -0.000045 0.000007 0.353985 -0.209873 152.299774 124.143021
[BN_L_Leg_Rear02]
20 139.939041 0.000075 -0.000022 0.111789 -0.228650 87.739754 139.939041
21 139.939041 0.000075 -0.000022 0.107942 -0.223007 87.861137 139.939041
22 139.939041 0.000075 -0.000022 0.104107 -0.217356 87.982521 139.939041
23 139.939041 0.000075 -0.000022 0.100284 -0.211697 88.103889 139.939041
[BN_L_Leg_Rear03]
20 142.839615 0.000179 -0.000060 0.000307 -0.002327 -105.020805 142.839615
21 142.839615 0.000179 -0.000060 0.000310 -0.002327 -105.170174 142.839615
22 142.839615 0.000179 -0.000060 0.000313 -0.002326 -105.319534 142.839615
23 142.839615 0.000179 -0.000060 0.000316 -0.002326 -105.468910 142.839615
[BN_Head]
20 57.062447 -0.000030 0.000000 -3.772529 5.594229 -14.158626 57.062447
21 57.062447 -0.000030 0.000000 -3.886776 6.328553 -14.189354 57.062447
22 57.062447 -0.000030 0.000000 -4.096858 7.685894 -14.235798 57.062447
23 57.062447 -0.000030 0.000000 -4.212243 8.421372 -14.257586 57.062447
[BN_Needle]
20 46.997864 425.919403 -0.000103 0.000003 0.000030 87.896805 428.504547
21 46.997860 425.919403 -0.000103 0.000003 0.000030 87.896805 428.504547
22 46.997860 425.919403 -0.000102 0.000003 0.000030 87.896805 428.504547
23 46.997856 425.919403 -0.000102 0.000003 0.000030 87.896805 428.504547
[BN_R_Leg_Front02]
20 142.804947 -0.000060 0.000060 0.364425 1.059976 167.075333 142.804947
21 142.804947 -0.000060 0.000060 0.351559 1.050433 166.622131 142.804947
22 142.804947 -0.000060 0.000060 0.348234 1.053767 165.725342 142.804947
23 142.804947 -0.000060 0.000060 0.339376 1.049732 165.226654 142.804947
[BN_R_Leg_Front03]
20 124.143005 -0.000060 -0.000156 -0.354579 -0.179721 -156.209839 124.143005
21 124.143005 -0.000060 -0.000156 -0.355907 -0.183964 -156.017731 124.143005
22 124.143005 -0.000060 -0.000156 -0.351696 -0.183797 -155.628281 124.143005
23 124.143005 -0.000060 -0.000156 -0.353098 -0.187960 -155.410660 124.143005
[BN_R_Leg_Rear02]
20 139.939011 -0.000149 0.000015 0.007507 -0.243893 -121.730377 139.939011
21 139.939011 -0.000149 0.000015 0.006381 -0.254955 -121.447075 139.939011
22 139.939011 -0.000149 0.000015 0.004605 -0.266025 -120.907700 139.939011
23 139.939011 -0.000149 0.000015 0.004522 -0.254995 -120.611877 139.939011
[BN_R_Leg_Rear03]
20 142.839417 0.000075 0.000119 0.002138 -0.000970 138.793839 142.839417
21 142.839417 0.000075 0.000119 0.002139 -0.000966 138.587723 142.839417
22 142.839417 0.000075 0.000119 0.002143 -0.000958 138.180313 142.839417
23 142.839417 0.000075 0.000119 0.002145 -0.000954 137.952591 142.839417
[BN_SackDef01]
20 595.274292 -15.655354 102.924904 -128.408218 -44.374973 -11.740845 604.309631
21 595.307983 -15.656514 102.930771 -128.408218 -44.374973 -11.740845 604.343872
22 595.341797 -15.657677 102.936638 -128.408218 -44.374973 -11.740845 604.378174
23 595.375549 -15.658836 102.942505 -128.408218 -44.374973 -11.740845 604.412476
[BN_SackDef02]
20 232.588425 -210.395462 117.851341 32.077126 -27.375721 -88.781525 335.041138
21 232.610046 -210.429657 117.867981 32.077126 -27.375721 -88.781525 335.083466
22 232.631683 -210.463837 117.884628 32.077126 -27.375721 -88.781525 335.125824
23 232.653305 -210.498032 117.901276 32.077126 -27.375721 -88.781525 335.168152
[BN_SackDef03]
20 595.274231 -15.655322 -102.924980 18.144459 44.375008 -11.740894 604.309570
21 595.307922 -15.656481 -102.930840 18.144459 44.375008 -11.740894 604.343811
22 595.341736 -15.657640 -102.936691 18.144459 44.375008 -11.740894 604.378113
23 595.375488 -15.658797 -102.942551 18.144459 44.375008 -11.740894 604.412354
[BN_SackDef04]
20 232.588348 -210.395401 -117.851204 146.059982 27.375723 -88.781555 335.041016
21 232.609985 -210.429596 -117.867851 146.059982 27.375723 -88.781555 335.083344
22 232.631622 -210.463776 -117.884491 146.059982 27.375723 -88.781555 335.125702
23 232.653244 -210.497971 -117.901138 146.059982 27.375723 -88.781555 335.168030
[BN_SackDef05]
20 288.036713 261.854706 -163.333588 0.155741 51.314110 90.605110 422.150330
21 288.053253 261.875793 -163.343323 0.155741 51.314110 90.605110 422.178436
22 288.069794 261.896881 -163.353043 0.155741 51.314110 90.605110 422.206573
23 288.086334 261.917938 -163.362778 0.155741 51.314110 90.605110 422.234711
[BN_SackDef06]
20 288.036865 261.854858 163.333282 152.058487 -51.314072 90.605019 422.150391
21 288.053406 261.875946 163.343018 152.058487 -51.314072 90.605019 422.178528
22 288.069946 261.897034 163.352722 152.058487 -51.314072 90.605019 422.206635
23 288.086487 261.918091 163.362457 152.058487 -51.314072 90.605019 422.234772
